<?xml version="1.0" encoding="UTF-8"?>
<svg viewBox="0 0 20 20" version="1.1" xmlns="http://www.w3.org/2000/svg" xmlns:xlink="http://www.w3.org/1999/xlink">
    <g id="Page-1" stroke="none" stroke-width="1" fill="none" fill-rule="evenodd">
        <g id="Insight-of-the-Day" transform="translate(-466.000000, -474.000000)" fill="#6F84C5" fill-rule="nonzero">
            <g id="Group-5" transform="translate(237.000000, 374.000000)">
                <g id="Links" transform="translate(30.000000, 92.000000)">
                    <path d="M199,25.0049107 L199,10.9950893 C199,9.34078395 200.340501,8 201.995089,8 L216.004911,8 C217.659216,8 219,9.3405012 219,10.9950893 L219,25.0049107 C219,26.6592161 217.659499,28 216.004911,28 L201.995089,28 C200.340784,28 199,26.6594988 199,25.0049107 Z M201.995089,10 C201.445165,10 201,10.445259 201,10.9950893 L201,25.0049107 C201,25.5548349 201.445259,26 201.995089,26 L216.004911,26 C216.554835,26 217,25.554741 217,25.0049107 L217,10.9950893 C217,10.4451651 216.554741,10 216.004911,10 L201.995089,10 Z M204,17.0029293 C204,16.4490268 204.443865,16 205,16 C205.552285,16 206,16.4485301 206,17.0029293 L206,21.9970707 C206,22.5509732 205.556135,23 205,23 C204.447715,23 204,22.5514699 204,21.9970707 L204,17.0029293 Z M205,15 C204.447715,15 204,14.5522847 204,14 C204,13.4477153 204.447715,13 205,13 C205.552285,13 206,13.4477153 206,14 C206,14.5522847 205.552285,15 205,15 Z M209.5,19.2502473 L209.5,22 C209.5,22.5522847 209.052285,23 208.5,23 C207.947715,23 207.5,22.5522847 207.5,22 L207.5,19.2502473 C207.5,17.4559088 208.956879,16 210.75,16 C212.543842,16 214,17.4581125 214,19.2502473 L214,22 C214,22.5522847 213.552285,23 213,23 C212.447715,23 212,22.5522847 212,22 L212,19.2502473 C212,18.562082 211.438671,18 210.75,18 C210.06115,18 209.5,18.5607766 209.5,19.2502473 Z" id="icon-linkedin"></path>
                </g>
            </g>
        </g>
    </g>
</svg>
