<?xml version="1.0" encoding="UTF-8"?>
<svg width="12px" height="12px" viewBox="0 0 12 12" version="1.1" xmlns="http://www.w3.org/2000/svg" xmlns:xlink="http://www.w3.org/1999/xlink">
    <!-- Generator: Sketch 61.2 (89653) - https://sketch.com -->
    <title>cards-icon</title>
    <desc>Created with Sketch.</desc>
    <g id="Page-1" stroke="none" stroke-width="1" fill="none" fill-rule="evenodd">
        <g id="For-Agencies" transform="translate(-587.000000, -4130.000000)" fill="#FFFFFF" fill-rule="nonzero">
            <g id="example" transform="translate(160.000000, 3673.500000)">
                <g id="Group-15-Copy-2" transform="translate(182.000000, 382.500000)">
                    <g id="Group-6" transform="translate(240.000000, 70.000000)">
                        <path d="M6.15881864,10.7035326 C6.43024669,10.5144071 6.80473122,10.5795136 6.99525326,10.8489521 C7.18577529,11.1183906 7.12018801,11.4901301 6.84875996,11.6792556 C6.73989452,11.7551108 6.63317748,11.8294691 6.63317748,11.8294691 L6.63317748,11.8294691 L10.8529364,14.7748736 C10.915957,14.8189268 11.0767465,14.8188917 11.139717,14.7748736 L11.139717,14.7748736 L15.3603221,11.8245525 C15.3603221,11.8245525 15.3343474,11.81196 15.1704681,11.6977723 C14.8990401,11.5086468 14.8259697,11.1183906 15.0164917,10.8489521 C15.2070137,10.5795136 15.5679839,10.5347351 15.8604094,10.7220493 C16.034047,10.8332735 16.6315123,11.2427405 16.7453577,11.3386631 C17.0834442,11.6235242 17.086065,12.0762229 16.7461022,12.3138664 L16.7461022,12.3138664 L11.8311475,15.7495574 C11.3535619,16.0834031 10.6393142,16.0835587 10.1615059,15.7495574 L10.1615059,15.7495574 L5.24655117,12.3138664 C4.90658838,12.0762229 4.92899951,11.6051523 5.24729574,11.3386631 C5.36514235,11.2399976 5.9900181,10.8211494 6.15881864,10.7035326 Z M10.1665505,4.25133924 C10.6434524,3.91629831 11.3563254,3.9161422 11.8334495,4.25133924 L11.8334495,4.25133924 L16.7447115,7.70167944 C17.084781,7.94059069 17.0851628,8.44477438 16.7454555,8.68420129 L16.7454555,8.68420129 L11.8341935,12.1456756 C11.3569668,12.4820267 10.6432557,12.4821835 10.1658065,12.1456756 L10.1658065,12.1456756 L5.25454452,8.68420129 C4.91483716,8.44477438 4.91521896,7.94059069 5.25528853,7.70167944 L5.25528853,7.70167944 Z M11.1440266,5.23438464 C11.0807282,5.18991523 10.9192215,5.1899506 10.8559734,5.23438464 L10.8559734,5.23438464 L6.64129681,8.19534829 L10.8567174,11.1636773 C10.9196907,11.208061 11.0803594,11.2080257 11.1432826,11.1636773 L11.1432826,11.1636773 L15.3543966,8.19566965 Z" id="cards-icon"></path>
                    </g>
                </g>
            </g>
        </g>
    </g>
</svg>