<?xml version="1.0" encoding="UTF-8"?>
<svg viewBox="0 0 20 20" version="1.1" xmlns="http://www.w3.org/2000/svg" xmlns:xlink="http://www.w3.org/1999/xlink">
    <g id="Page-1" stroke="none" stroke-width="1" fill="none" fill-rule="evenodd">
        <g id="Insight-of-the-Day" transform="translate(-574.000000, -474.000000)" fill="#EA479A">
            <g id="Group-5" transform="translate(237.000000, 374.000000)">
                <g id="Links" transform="translate(30.000000, 92.000000)">
                    <path d="M311.995253,8 L322.004747,8 C324.763549,8 327,10.236038 327,12.9952534 L327,23.0047466 C327,25.7635489 324.763962,28 322.004747,28 L311.995253,28 C309.236451,28 307,25.763962 307,23.0047466 L307,12.9952534 C307,10.2364511 309.236038,8 311.995253,8 Z M309,23.0047466 C309,24.6592243 310.340852,26 311.995253,26 L322.004747,26 C323.659224,26 325,24.6591477 325,23.0047466 L325,12.9952534 C325,11.3407757 323.659148,10 322.004747,10 L311.995253,10 C310.340776,10 309,11.3408523 309,12.9952534 L309,23.0047466 Z M312,18 C312,15.2385763 314.238576,13 317,13 C319.761424,13 322,15.2385763 322,18 C322,20.7614237 319.761424,23 317,23 C314.238576,23 312,20.7614237 312,18 Z M320,18 C320,16.3431458 318.656854,15 317,15 C315.343146,15 314,16.3431458 314,18 C314,19.6568542 315.343146,21 317,21 C318.656854,21 320,19.6568542 320,18 Z M322,14 C321.447715,14 321,13.5522847 321,13 C321,12.4477153 321.447715,12 322,12 C322.552285,12 323,12.4477153 323,13 C323,13.5522847 322.552285,14 322,14 Z" id="icon-instagram"></path>
                </g>
            </g>
        </g>
    </g>
</svg>
