<?xml version="1.0" encoding="UTF-8"?>
<svg viewBox="0 0 20 18" version="1.1" xmlns="http://www.w3.org/2000/svg" xmlns:xlink="http://www.w3.org/1999/xlink">
    <g id="Page-1" stroke="none" stroke-width="1" fill="none" fill-rule="evenodd">
        <g id="Insight-of-the-Day" transform="translate(-372.000000, -475.000000)" fill="#3BA7FF">
            <g id="Group-5" transform="translate(237.000000, 374.000000)">
                <g id="Links" transform="translate(30.000000, 92.000000)">
                    <path d="M110.795998,21.6715532 C111.439285,22.1066952 111.362568,23.0776204 110.658936,23.4061969 C110.395347,23.5292859 108.052129,24.162517 108.052129,24.162517 C108.985693,24.7127403 110.294196,25.0000077 112.00494,25.0000077 C117.493958,25.0000077 121.499231,20.9655901 121.503324,14.9273465 C121.503395,14.8230704 121.498688,14.5283356 121.498688,14.500048 C121.498688,12.420717 120.408833,10.9901284 118.505868,11.0000479 C116.589336,11.0100381 115.502637,12.4303432 115.502637,14.500048 C115.502637,14.6202059 115.499465,15.366555 115.499465,15.4878982 C115.499465,16.0876626 114.975512,16.5525199 114.380453,16.4806986 C111.874012,16.1781812 109.598345,15.0772581 107.842455,13.3714989 C107.842455,13.3714989 107.611597,14.2424768 107.555187,14.6427689 C107.587835,14.6815827 108.207557,15.3091068 108.560929,15.5615959 C108.832083,15.7553396 109.125679,15.9309816 109.442108,16.084158 C109.938947,16.3246667 110.146871,16.9226683 109.906519,17.4198319 C109.666168,17.9169955 109.068558,18.1250555 108.571719,17.8845469 C108.257488,17.7324344 107.959883,17.5634508 107.678717,17.3799826 C108.074343,18.9967138 109.073374,20.5063107 110.795998,21.6715532 Z M123.939676,11.0102315 C124.947128,10.9561084 125.301211,11.5833225 124.720015,12.411719 L123.490002,14.1648935 C123.494906,14.2756804 123.502098,14.7953198 123.502008,14.9287033 C123.497168,22.0677392 118.600538,27 112.00494,27 C108.747736,27 106.643383,26.1484934 105.193203,24.1615807 C104.760578,23.5688345 105.092284,22.7272135 105.812787,22.5895418 C105.845836,22.5832268 108.15239,22.084389 108.15239,22.084389 C105.106345,19.0023501 104.825491,14.6241285 106.627473,11.0541039 C106.959965,10.3953824 107.86655,10.3116302 108.313943,10.8983042 C109.609321,12.5969528 111.429452,13.7886346 113.509971,14.2942432 C113.60929,11.2925553 115.43723,9.01602419 118.495457,9.00008273 C120.319557,8.99057434 121.708196,9.80131829 122.554125,11.0846672 L123.939676,11.0102315 Z" id="icon-twitter"></path>
                </g>
            </g>
        </g>
    </g>
</svg>
