<?xml version="1.0" standalone="no"?>
<!DOCTYPE svg PUBLIC "-//W3C//DTD SVG 20010904//EN"
 "http://www.w3.org/TR/2001/REC-SVG-20010904/DTD/svg10.dtd">
<svg version="1.0" xmlns="http://www.w3.org/2000/svg"
 width="700.000000pt" height="700.000000pt" viewBox="0 0 700.000000 700.000000"
 preserveAspectRatio="xMidYMid meet">
<metadata>
Created by potrace 1.11, written by Peter Selinger 2001-2013
</metadata>
<g transform="translate(0.000000,700.000000) scale(0.100000,-0.100000)"
fill="#000000" stroke="none">
<path d="M2537 5624 c-195 -46 -397 -199 -472 -359 -69 -149 -73 -385 -8 -547
14 -34 19 -38 52 -39 20 0 131 0 247 0 l211 0 1 -39 c6 -135 140 -233 272
-198 84 23 149 99 160 188 l5 45 542 2 c501 1 542 0 534 -15 -4 -10 -9 -43
-10 -74 -2 -50 1 -59 21 -72 13 -8 30 -14 38 -12 177 31 201 31 375 0 10 -2
29 3 42 11 19 13 23 24 23 65 0 27 -4 60 -10 74 l-9 25 192 0 c106 0 205 0
221 0 l29 1 -6 123 c-6 140 -9 158 -42 249 -29 79 -39 99 -83 156 -56 71 -104
111 -177 147 -192 96 -462 91 -808 -16 -71 -21 -132 -41 -136 -44 -16 -9 -117
-20 -183 -19 -115 3 -223 46 -424 170 -147 91 -278 157 -342 173 -74 18 -187
21 -255 5z"/>
<path d="M3487 3944 c-1 -1 -40 -4 -87 -8 -210 -16 -271 -31 -321 -75 -36 -32
-41 -42 -46 -93 -6 -59 5 -117 39 -196 l18 -43 -44 -19 c-61 -26 -160 -74
-166 -80 -3 -3 -16 -11 -30 -18 -14 -7 -53 -33 -85 -58 -349 -260 -545 -644
-546 -1068 -2 -529 318 -1009 811 -1219 83 -35 205 -73 265 -82 17 -3 57 -9
90 -14 64 -10 316 -7 375 4 204 38 385 109 535 210 81 54 97 67 193 160 194
186 337 452 377 705 4 25 9 54 12 65 11 48 9 278 -3 356 -62 417 -312 773
-682 976 -90 50 -88 39 -46 219 25 105 25 113 10 143 -34 65 -136 103 -341
127 -52 6 -322 13 -328 8z"/>
</g>
</svg>
