<?xml version="1.0" encoding="UTF-8"?>
<svg viewBox="0 0 20 20" version="1.1" xmlns="http://www.w3.org/2000/svg" xmlns:xlink="http://www.w3.org/1999/xlink">
    <g id="Page-1" stroke="none" stroke-width="1" fill="none" fill-rule="evenodd">
        <g id="Insight-of-the-Day" transform="translate(-694.000000, -474.000000)" fill="#4587FD">
            <g id="Group-5" transform="translate(237.000000, 374.000000)">
                <g id="Links" transform="translate(30.000000, 92.000000)">
                    <path d="M444.004911,26 C444.554835,26 445,25.554741 445,25.0049107 L445,10.9950893 C445,10.4451651 444.554741,10 444.004911,10 L429.995089,10 C429.445165,10 429,10.445259 429,10.9950893 L429,25.0049107 C429,25.5548349 429.445259,26 429.995089,26 L437,26 L437,20 L435.999512,20 C435.447227,20 434.999512,19.5522847 434.999512,19 C434.999512,18.4477153 435.447227,18 435.999512,18 L437,18 C437,16.1031887 437.214165,14.9077276 438.103869,13.9119452 C438.983624,12.9272989 440.011693,12.5 441,12.5 C441.552285,12.5 442,12.9477153 442,13.5 C442,14.0522847 441.552285,14.5 441,14.5 C440.562882,14.5 440.081824,14.6999431 439.595288,15.2444879 C439.152479,15.7400929 439,16.5912237 439,18 L441,18 C441.552285,18 442,18.4477153 442,19 C442,19.5522847 441.552285,20 441,20 L439,20 L439,26 L444.004911,26 Z M427,25.0049107 L427,10.9950893 C427,9.34078395 428.340501,8 429.995089,8 L444.004911,8 C445.659216,8 447,9.3405012 447,10.9950893 L447,25.0049107 C447,26.6592161 445.659499,28 444.004911,28 L429.995089,28 C428.340784,28 427,26.6594988 427,25.0049107 Z" id="icon-facebook"></path>
                </g>
            </g>
        </g>
    </g>
</svg>
