<?xml version="1.0" encoding="UTF-8"?>
<svg width="41px" height="42px" viewBox="0 0 41 42" version="1.1" xmlns="http://www.w3.org/2000/svg" xmlns:xlink="http://www.w3.org/1999/xlink">
    <!-- Generator: Sketch 61.2 (89653) - https://sketch.com -->
    <title>register-icon</title>
    <desc>Created with Sketch.</desc>
    <defs>
        <circle id="path-1" cx="20.9900281" cy="20.9900281" r="20.9900281"></circle>
    </defs>
    <g id="Dashboard" stroke="none" stroke-width="1" fill="none" fill-rule="evenodd">
        <g id="Onboarding-2" transform="translate(-607.000000, -59.000000)">
            <g id="Group" transform="translate(514.000000, 59.000000)">
                <g id="register-icon" transform="translate(92.000000, -0.000000)">
                    <g id="Group-2">
                        <mask id="mask-2" fill="white">
                            <use xlink:href="#path-1"></use>
                        </mask>
                        <g id="Mask"></g>
                        <path d="M18.6180197,19.596306 C-14.5285318,20.8367741 8.78779946,42.9222519 20.7668583,42.9222519 C32.6378554,42.7860804 42.189433,33.1472988 42.189433,21.3040933 C42.189433,9.46088784 32.6378554,-0.177893725 20.7668583,-0.314065258 C8.78779946,-0.314065258 30.5798879,19.144707 18.6180197,19.596306 Z" id="Path" fill="#FFFFFF" fill-rule="nonzero" mask="url(#mask-2)"></path>
                    </g>
                    <g id="moderne" transform="translate(12.000000, 8.166667)">
                        <path d="M0.384155824,5.75796416 L17.9272465,5.75796416 C17.9272465,5.75796416 18.8114343,-0.851361289 10.5982479,1.99704478 C7.37440713,3.11423398 5.88162246,-0.9906546 2.72667947,0.228872548 C-1.4014443,1.82648154 0.384155824,5.75796416 0.384155824,5.75796416" id="Path" fill="#DE9CD7"></path>
                        <path d="M12.6452479,12.8937792 C12.7261636,12.3820341 12.8371001,11.8753766 12.9774957,11.3763729 C13.3964169,9.90754644 8.49937323,10.0132791 6.87858179,10.4133485 C5.76916305,10.6991125 6.1418584,11.8964632 6.52033199,12.6565952 C2.9223659,13.9652622 0.760965617,17.6065239 1.35894077,21.3518731 C1.95691593,25.0972223 5.14755855,27.9025027 8.97814712,28.0508401 C12.8087357,28.1991776 16.2113501,25.6492175 17.1035389,21.9615741 C17.9957278,18.2739307 16.1287599,14.4766726 12.6452479,12.8937792" id="Path" fill="#DE9CD7"></path>
                        <path d="M15.4349988,6.34016568 C15.4349988,7.15143627 14.7534989,6.65385698 13.9124989,6.65385698 C13.071499,6.65385698 12.3899991,7.15143627 12.3899991,6.34016568 C12.3899991,5.83294731 12.6801859,5.36425819 13.151249,5.110649 C13.6223121,4.8570398 14.2026858,4.8570398 14.6737489,5.110649 C15.144812,5.36425819 15.4349988,5.83294731 15.4349988,6.34016568" id="Path" fill="#212126"></path>
                        <path d="M11.8649129,12.2375648 C11.8694669,12.5349384 11.693309,12.8055653 11.4190547,12.9225253 C11.1448005,13.0394853 10.8268462,12.9795802 10.6143081,12.7709046 C10.40177,12.5622291 10.3368033,12.2461724 10.4498766,11.9709607 C10.5629499,11.6957491 10.8316359,11.5159686 11.1299246,11.5159283 C11.5321266,11.5143711 11.8602929,11.8365733 11.8649129,12.2375648" id="Path" fill="#212126"></path>
                        <path d="M9.34450061,12.3669863 C9.30869999,12.7902037 8.94136882,13.1083613 8.51541759,13.0850823 C8.08946635,13.0618033 7.75932061,12.7055274 7.77026374,12.2809515 C7.78120687,11.8563756 8.12927153,11.5174266 8.55586138,11.5159283 C9.00848266,11.5367132 9.36008523,11.9161441 9.34450061,12.3669863" id="Path" fill="#212126"></path>
                        <path d="M5.98499954,5.91499955 C5.98499954,6.63773495 5.39737332,7.22362777 4.67249964,7.22362777 C3.94762596,7.22362777 3.35999974,6.63773495 3.35999974,5.91499955 C3.35999974,5.19226414 3.94762596,4.60637133 4.67249964,4.60637133 C5.39737332,4.60637133 5.98499954,5.19226414 5.98499954,5.91499955" id="Path" fill="#212126"></path>
                        <path d="M10.1845024,22.8330444 C10.1502587,23.2571619 9.78298666,23.5769462 9.3562986,23.5541625 C8.92961053,23.5313789 8.5987886,23.1743189 8.61029036,22.748987 C8.62179211,22.3236552 8.97143179,21.9848401 9.39873289,21.9849541 C9.84970714,22.0056665 10.2000303,22.3837744 10.1845024,22.8330444" id="Path" fill="#212126"></path>
                    </g>
                </g>
            </g>
        </g>
    </g>
</svg>